/* XPM */
static char *adca4b6bffc94620f5945a281d67539e[] = {
/* columns rows colors chars-per-pixel */
"128 128 59 1 ",
"  c #060102",
". c #090405",
"X c #0B0708",
"o c #0D0B0B",
"O c #100E0F",
"+ c #110F10",
"@ c #131212",
"# c #191717",
"$ c #1C1A1A",
"% c #211E1E",
"& c #252323",
"* c #292627",
"= c #2A2728",
"- c #2D2B2B",
"; c #302E2E",
": c #343333",
"> c #393738",
", c #413F40",
"< c #444343",
"1 c #4E4C4C",
"2 c #504E4F",
"3 c #504F50",
"4 c #555354",
"5 c #5D5C5C",
"6 c #626161",
"7 c #696868",
"8 c #767576",
"9 c #787677",
"0 c #7D7C7C",
"q c #807F7F",
"w c #828181",
"e c #8D8C8C",
"r c #908F8F",
"t c #949393",
"y c #989797",
"u c #989798",
"i c #9B9A9B",
"p c #A5A4A5",
"a c #AAA9AA",
"s c #B6B5B6",
"d c #B8B7B7",
"f c #B8B8B7",
"g c #B8B7B8",
"h c #BABABA",
"j c #C0BFBF",
"k c #C0BFC0",
"l c #C2C1C1",
"z c #C8C7C7",
"x c #CACACA",
"c c gray83",
"v c #D8D7D7",
"b c #D9D9D9",
"n c #E0DFE0",
"m c #E2E2E2",
"M c #EBEBEB",
"N c #F5F4F4",
"B c #F8F7F7",
"V c #FFFFFF",
"C c None",
/* pixels */
"CCCCCCCCCCCCCCCCCCCCCCCCCCCCCCCCCCCCCCCCCCCCCCCCCCCCCCCCCCCCCCCCCCCCCCCCCCCCCCCCCCCCCCCCCCCCCCCCCCCCCCCCCCCCCCCCCCCCCCCCCCCCCCCC",
"CCCCCCCCCCCCCCCCCCCCCCCCCCCCCCCCCCCCCCCCCCCCCCCCCCCCCCCCCCCCCCCCCCCCCCCCCCCCCCCCCCCCCCCCCCCCCCCCCCCCCCCCCCCCCCCCCCCCCCCCCCCCCCCC",
"CCCCCCCCCCCCCCCCCCCCCCCCCCCCCCCCCCCCCCCCCCCCCCCCCCCCCCCCCCCCCCCCCCCCCCCCCCCCCCCCCCCCCCCCCCCCCCCCCCCCCCCCCCCCCCCCCCCCCCCCCCCCCCCC",
"CCCCCCCCCCCCCCCCCCCCCCCCCCCCCCCCCCCCCCCCCCCCCCCCCCCCCCCCCCCCCCCCCCCCCCCCCCCCCCCCCCCCCCCCCCCCCCCCCCCCCCCCCCCCCCCCCCCCCCCCCCCCCCCC",
"CCCCCCCCCCCCCCCCCCCCCCCCCCCCCCCCCCCCCCCCCCCCCCCCCCCCCCCCCCCCCCCCCCCCCCCCCCCCCCCCCCCCCCCCCCCCCCCCCCCCCCCCCCCCCCCCCCCCCCCCCCCCCCCC",
"CCCCCCCCCCCCCCCCCCCCCCCCCCCCCCCCCCCCCCCCCCCCCCCCCCCCCCCCCCCCCCCCCCCCCCCCCCCCCCCCCCCCCCCCCCCCCCCCCCCCCCCCCCCCCCCCCCCCCCCCCCCCCCCC",
"CCCCCCCCCCCCCCCCCCCCCCCCCCCCCCCCCCCCCCCCCCCCCCCCCCCCCCCCCCCCCCCCCCCCCCCCCCCCCCCCCCCCCCCCCCCCCCCCCCCCCCCCCCCCCCCCCCCCCCCCCCCCCCCC",
"CCCCCCCCCCCCCCCCCCCCCCCCCCCCCCCCCCCCCCCCCCCCCCCCCCCCCCCCCCCCCCCCCCCCCCCCCCCCCCCCCCCCCCCCCCCCCCCCCCCCCCCCCCCCCCCCCCCCCCCCCCCCCCCC",
"CCCCCCCCCCCCCCCCCCCCCCCCCCCCCCCCCCCCCCCCCCCCCCCCCCCCCCCCCCCCCCCCCCCCCCCCCCCCCCCCCCCCCCCCCCCCCCCCCCCCCCCCCCCCCCCCCCCCCCCCCCCCCCCC",
"CCCCCCCCCCCCCCCCCCCCCCCCCCCCCCCCCCCCCCCCCCCCCCCCCCCCCCCCCCCCCCCCCCCCCCCCCCCCCCCCCCCCCCCCCCCCCCCCCCCCCCCCCCCCCCCCCCCCCCCCCCCCCCCC",
"CCCCCCCCCCCCCCCCCCCCCCCCCCCCCCCCCCCCCCCCCCCCCCCCCCCCCCCCCCCCCCCCCCCCCCCCCCCCCCCCCCCCCCCCCCCCCCCCCCCCCCCCCCCCCCCCCCCCCCCCCCCCCCCC",
"CCCCCCCCCCCCCCCCCCCCCCCCCCCCCCCCCCCCCCCCCCCCCCCCCCCCCCCCCCCCCCCCCCCCCCCCCCCCCCCCCCCCCCCCCCCCCCCCCCCCCCCCCCCCCCCCCCCCCCCCCCCCCCCC",
"CCCCCCCCCCCCCCCCCCCCCCCCCCCCCCCCCCCCCCCCCCCCCCCCCCCCCCCCCCCCCCCCCCCCCCCCCCCCCCCCCCCCCCCCCCCCCCCCCCCCCCCCCCCCCCCCCCCCCCCCCCCCCCCC",
"CCCCCCCCCCCCCCCCCCCCCCCCCCCCCCCCCCCCCCCCCCCCCCCCCCCCCCCCCCCCCCCCCCCCCCCCCCCCCCCCCCCCCCCCCCCCCCCCCCCCCCCCCCCCCCCCCCCCCCCCCCCCCCCC",
"CCCCCCCCCCCCCCCCCCCCCCCCCCCCCCCCCCCCCCCCCCCCCCCCCCCCCCCCCCCCCCCCCCCCCCCCCCCCCCCCCCCCCCCCCCCCCCCCCCCCCCCCCCCCCCCCCCCCCCCCCCCCCCCC",
"CCCCCCCCCCCCCCCCCCCCCCCCCCCCCCCCCCCCCCCCCCCCCCCCCCCCCCCCCCCCCCCCCCCCCCCCCCCCCCCCCCCCCCCCCCCCCCCCCCCCCCCCCCCCCCCCCCCCCCCCCCCCCCCC",
"CCCCCCCCCCCCCCCCCCCCCCCCCCCCCCCCCCCCCCCCCCCCCCCCCCCCCCCCCCCCCCCCCCCCCCCCCCCCCCCCCCCCCCCCCCCCCCCCCCCCCCCCCCCCCCCCCCCCCCCCCCCCCCCC",
"CCCCCCCCCCCCCCCCCCCCCCCCCCCCCCCCCCCCCCCCCCCCCCCCCCCCCCCCCCCCCCCCCCCCCCCCCCCCCCCCCCCCCCCCCCCCCCCCCCCCCCCCCCCCCCCCCCCCCCCCCCCCCCCC",
"CCCCCCCCCCCCCCCCCCCCCCCCCCCCCCCCCCCCCCCCCCCCCCCCCCCCCCCCCCCCCCCCCCCCCCCCCCCCCCCCCCCCCCCCCCCCCCCCCCCCCCCCCCCCCCCCCCCCCCCCCCCCCCCC",
"CCCCCCCCCCCCCCCCCCCCCCCCCCCCCCCCCCCCCCCCCCCCCCCCCCCCCCCCCCCCCCCCCCCCCCCCCCCCCCCCCCCCCCCCCCCCCCCCCCCCCCCCCCCCCCCCCCCCCCCCCCCCCCCC",
"CCCCCCCCCCCCCCCCCCCCCCCCCCCCCCCCCCCCCCCCCCCCCCCCCCCCCCCC................CCCCCCCCCCCCCCCCCCCCCCCCCCCCCCCCCCCCCCCCCCCCCCCCCCCCCCCC",
"CCCCCCCCCCCCCCCCCCCCCCCCCCCCCCCCCCCCCCCCCCCCCCCCCCCC........................CCCCCCCCCCCCCCCCCCCCCCCCCCCCCCCCCCCCCCCCCCCCCCCCCCCC",
"CCCCCCCCCCCCCCCCCCCCCCCCCCCCCCCCCCCCCCCCCCCCCCCCC...........CCCCCCCC...........CCCCCCCCCCCCCCCCCCCCCCCCCCCCCCCCCCCCCCCCCCCCCCCCC",
"CCCCCCCCCCCCCCCCCCCCCCCCCCCCCCCCCCCCCCCCCCCCCC........CCCCCCCCCCCCCCCCCCCC........CCCCCCCCCCCCCCCCCCCCCCCCCCCCCCCCCCCCCCCCCCCCCC",
"CCCCCCCCCCCCCCCCCCCCCCCCCCCCCCCCCCCCCCCCCCCC.......CCCCCCX.............CCCCCCC......CCCCCCCCCCCCCCCCCCCCCCCCCCCCCCCCCCCCCCCCCCCC",
"CCCCCCCCCCCCCCCCCCCCCCCCCCCCCCCCCCCCCCCCCC......CCCCC......................CCCCC......CCCCCCCCCCCCCCCCCCCCCCCCCCCCCCCCCCCCCCCCCC",
"CCCCCCCCCCCCCCCCCCCCCCCCCCCCCCCCCCCCCCCCC.....CCCC............................CCCC......CCCCCCCCCCCCCCCCCCCCCCCCCCCCCCCCCCCCCCCC",
"CCCCCCCCCCCCCCCCCCCCCCCCCCCCCCCCCCCCCCC.....CCC..................................CCC.....CCCCCCCCCCCCCCCCCCCCCCCCCCCCCCCCCCCCCCC",
"CCCCCCCCCCCCCCCCCCCCCCCCCCCCCCCCCCCCCC....CCC......................................CCC.....CCCCCCCCCCCCCCCCCCCCCCCCCCCCCCCCCCCCC",
"CCCCCCCCCCCCCCCCCCCCCCCCCCCCCCCCCCCC.....CCC.........................................CCC....CCCCCCCCCCCCCCCCCCCCCCCCCCCCCCCCCCCC",
"CCCCCCCCCCCCCCCCCCCCCCCCCCCCCCCCCCC....CCC............................................CCC....CCCCCCCCCCCCCCCCCCCCCCCCCCCCCCCCCCC",
"CCCCCCCCCCCCCCCCCCCCCCCCCCCCCCCCCC....CC................................................CC....CCCCCCCCCCCCCCCCCCCCCCCCCCCCCCCCCC",
"CCCCCCCCCCCCCCCCCCCCCCCCCCCCCCCCC....CC..................................................CC....CCCCCCCCCCCCCCCCCCCCCCCCCCCCCCCCC",
"CCCCCCCCCCCCCCCCCCCCCCCCCCCCCCCC...CCC....................................................CCC...CCCCCCCCCCCCCCCCCCCCCCCCCCCCCCCC",
"CCCCCCCCCCCCCCCCCCCCCCCCCCCCCCC...CCC......................................................CCC...CCCCCCCCCCCCCCCCCCCCCCCCCCCCCCC",
"CCCCCCCCCCCCCCCCCCCCCCCCCCCCCC...CCC........................................................CCC...CCCCCCCCCCCCCCCCCCCCCCCCCCCCCC",
"CCCCCCCCCCCCCCCCCCCCCCCCCCCCC....CC..........................................................CCC...CCCCCCCCCCCCCCCCCCCCCCCCCCCCC",
"CCCCCCCCCCCCCCCCCCCCCCCCCCCCC...CC............................................................CC....CCCCCCCCCCCCCCCCCCCCCCCCCCCC",
"CCCCCCCCCCCCCCCCCCCCCCCCCCCC...CC..............................................................CC...CCCCCCCCCCCCCCCCCCCCCCCCCCCC",
"CCCCCCCCCCCCCCCCCCCCCCCCCCC...CC................................................................CC...CCCCCCCCCCCCCCCCCCCCCCCCCCC",
"CCCCCCCCCCCCCCCCCCCCCCCCCC...CC..................................................................CC...CCCCCCCCCCCCCCCCCCCCCCCCCC",
"CCCCCCCCCCCCCCCCCCCCCCCCCC...CC..................................................................CC...CCCCCCCCCCCCCCCCCCCCCCCCCC",
"CCCCCCCCCCCCCCCCCCCCCCCCC...CC....................................................................CC...CCCCCCCCCCCCCCCCCCCCCCCCC",
"CCCCCCCCCCCCCCCCCCCCCCCCC...C......................................................................CC..CCCCCCCCCCCCCCCCCCCCCCCCC",
"CCCCCCCCCCCCCCCCCCCCCCCC...CC......................................................................CC...CCCCCCCCCCCCCCCCCCCCCCCC",
"CCCCCCCCCCCCCCCCCCCCCCCC...C........................................................................CC..CCCCCCCCCCCCCCCCCCCCCCCC",
"CCCCCCCCCCCCCCCCCCCCCCC...CC...................    ...........    ............   ...................CC...CCCCCCCCCCCCCCCCCCCCCCC",
"CCCCCCCCCCCCCCCCCCCCCCC...C.................. o<4>X.......... %33& ...........:4<O...................CC..CCCCCCCCCCCCCCCCCCCCCCC",
"CCCCCCCCCCCCCCCCCCCCCC...CC................. $iMBMw+.......  ,zNNc< ....... o0mBMa&  ................CC...CCCCCCCCCCCCCCCCCCCCCC",
"CCCCCCCCCCCCCCCCCCCCCC...CC................ $aVVVVBeo...... <vVVVVm1 ..... owNVVVVs& .................C...CCCCCCCCCCCCCCCCCCCCCC",
"CCCCCCCCCCCCCCCCCCCCCC..CC................ $pVVVVVVBeO ... <vVVVVVVn2 ... owNVVVVVVs& ................CC..CCCCCCCCCCCCCCCCCCCCCC",
"CCCCCCCCCCCCCCCCCCCCC...CC..............  $aVVVVVVVVBe+ . <vVVVVVVVVb2   owNVVVVVVVVs% ...............CC...CCCCCCCCCCCCCCCCCCCCC",
"CCCCCCCCCCCCCCCCCCCCC...C............... $aVVVVVVVVVVBeO <vVVVVVVVVVVm2 owNVVVVVVVVVVs& ...............C...CCCCCCCCCCCCCCCCCCCCC",
"CCCCCCCCCCCCCCCCCCCCC...C.............. $aVVVVVVVVVVVVBe2vVVVVVVVVVVVVm4qNVVVVVVVVVVVVs& ..............CC..CCCCCCCCCCCCCCCCCCCCC",
"CCCCCCCCCCCCCCCCCCCCC..CC............. $aVVVVVVVVVVVVVVBNVVVVVVVVVVVVVVNBVVVVVVVVVVVVVVs& .............CC..CCCCCCCCCCCCCCCCCCCCC",
"CCCCCCCCCCCCCCCCCCCC...CC............ $aVVVVVVVVVVVVVVVVVVVVVVVVVVVVVVVVVVVVVVVVVVVVVVVVs& ............CC...CCCCCCCCCCCCCCCCCCCC",
"CCCCCCCCCCCCCCCCCCCC...CC........... $aVVVVVVVVVVVVVVVVzaVVVVVVVVVVVVVBplVVVVVVVVVVVVVVVVs& ............C...CCCCCCCCCCCCCCCCCCCC",
"CCCCCCCCCCCCCCCCCCCC...C........... $aVVVVVVVVVVVVVVVVx:+yBVVVVVVVVVVBro-lVVVVVVVVVVVVVVVVs& ...........C...CCCCCCCCCCCCCCCCCCCC",
"CCCCCCCCCCCCCCCCCCCC...C.......... $aVVVVVVVVVVVVVVVVx: .+tBVVVVVVVVBro. =lVVVVVVVVVVVVVVVVf& ..........CC..CCCCCCCCCCCCCCCCCCCC",
"CCCCCCCCCCCCCCCCCCCC..CC......... %aVVVVVVVVVVVVVVVVx: .. +rBVVVVVVVe+... -lVVVVVVVVVVVVVVVVg& .........CC..CCCCCCCCCCCCCCCCCCCC",
"CCCCCCCCCCCCCCCCCCCC..CC........ $aVVVVVVVVVVVVVVVVx: .... +eBVVVVBrO .... =lVVVVVVVVVVVVVVVVh& ........CC..CCCCCCCCCCCCCCCCCCCC",
"CCCCCCCCCCCCCCCCCCCC..CC........$aVVVVVVVVVVVVVVVVz: ...... oeBVVBr+....... -kVVVVVVVVVVVVVVVVd&........CC..CCCCCCCCCCCCCCCCCCCC",
"CCCCCCCCCCCCCCCCCCCC..CC........eVVVVVVVVVVVVVVVVx:  ....... owBVe+ ........ =lVVVVVVVVVVVVVVVVio.......CC..CCCCCCCCCCCCCCCCCCCC",
"CCCCCCCCCCCCCCCCCCCC..CC...... $vVVVVVVVVVVVVVVVN1  ......... #lx$ .......... <NVVVVVVVVVVVVVVVm= ......CC..CCCCCCCCCCCCCCCCCCCC",
"CCCCCCCCCCCCCCCCCCCC..CC...... %bVVVVVVVVVVVVVVVM, .......... Ohz#  ......... <NVVVVVVVVVVVVVVVM= ......CC..CCCCCCCCCCCCCCCCCCCC",
"CCCCCCCCCCCCCCCCCCCC..CC.......XyVVVVVVVVVVVVVVVVs& .........X8NBwo ........ *hVVVVVVVVVVVVVVVVpo ......CC..CCCCCCCCCCCCCCCCCCCC",
"CCCCCCCCCCCCCCCCCCCC..CC........&hVVVVVVVVVVVVVVVVs& ...... X8NVVNwo....... =hVVVVVVVVVVVVVVVVl-........CC..CCCCCCCCCCCCCCCCCCCC",
"CCCCCCCCCCCCCCCCCCCC..CC........ &hVVVVVVVVVVVVVVVVh& .....X8NVVVVNwo .... *hVVVVVVVVVVVVVVVVz- ........CC..CCCCCCCCCCCCCCCCCCCC",
"CCCCCCCCCCCCCCCCCCCC..CC......... *hVVVVVVVVVVVVVVVVh* ...X8NVVVVVVNwo... &hVVVVVVVVVVVVVVVVl; .........CC..CCCCCCCCCCCCCCCCCCCC",
"CCCCCCCCCCCCCCCCCCCC...C.......... *hVVVVVVVVVVVVVVVVh* .X8NVVVVVVVVBwo .&hVVVVVVVVVVVVVVVVl; ..........CC..CCCCCCCCCCCCCCCCCCCC",
"CCCCCCCCCCCCCCCCCCCC...C........... &hVVVVVVVVVVVVVVVVh-.8NVVVVVVVVVVNwo&hVVVVVVVVVVVVVVVVl; ...........C...CCCCCCCCCCCCCCCCCCCC",
"CCCCCCCCCCCCCCCCCCCC...C............ &hVVVVVVVVVVVVVVVVheNVVVVVVVVVVVVNtsVVVVVVVVVVVVVVVVl- ............C...CCCCCCCCCCCCCCCCCCCC",
"CCCCCCCCCCCCCCCCCCCC...CC............ *gVVVVVVVVVVVVVVVVVVVVVVVVVVVVVVVVVVVVVVVVVVVVVVVVl- ............CC...CCCCCCCCCCCCCCCCCCCC",
"CCCCCCCCCCCCCCCCCCCCC..CC............. &hVVVVVVVVVVVVVVVNVVVVVVVVVVVVVVNBVVVVVVVVVVVVVVl- .............CC..CCCCCCCCCCCCCCCCCCCCC",
"CCCCCCCCCCCCCCCCCCCCC..CC.............. *dVVVVVVVVVVVVBi6nVVVVVVVVVVVVM7eBVVVVVVVVVVVVl-...............CC..CCCCCCCCCCCCCCCCCCCCC",
"CCCCCCCCCCCCCCCCCCCCC...C............... &fVVVVVVVVVVVi+ 2mVVVVVVVVVVM5 OeBVVVVVVVVVVl- ...............C...CCCCCCCCCCCCCCCCCCCCC",
"CCCCCCCCCCCCCCCCCCCCC...CC............... &hVVVVVVVVBi+ . 3mVVVVVVVVM5...+rBVVVVVVVVk- ...............CC...CCCCCCCCCCCCCCCCCCCCC",
"CCCCCCCCCCCCCCCCCCCCCC..CC................ &sVVVVVVVi+ ... 2mVVVVVVM5  ...+eBVVVVVVk- ................CC..CCCCCCCCCCCCCCCCCCCCCC",
"CCCCCCCCCCCCCCCCCCCCCC...CC................ &gVVVVVu+ ..... 2mVVVVM5 ..... +eBVVVVk- .................C...CCCCCCCCCCCCCCCCCCCCCC",
"CCCCCCCCCCCCCCCCCCCCCC...CC................. &aNVMt+........ 2cBBb5 ....... +eMVBs- .................CC...CCCCCCCCCCCCCCCCCCCCCC",
"CCCCCCCCCCCCCCCCCCCCCCC...C...................@27<o.......... =66-.......... o,73# ..................CC..CCCCCCCCCCCCCCCCCCCCCCC",
"CCCCCCCCCCCCCCCCCCCCCCC...CC..................    ............    ............    ..................CC...CCCCCCCCCCCCCCCCCCCCCCC",
"CCCCCCCCCCCCCCCCCCCCCCCC..CC........................................................................CC..CCCCCCCCCCCCCCCCCCCCCCCC",
"CCCCCCCCCCCCCCCCCCCCCCCC...CC......................................................................CC...CCCCCCCCCCCCCCCCCCCCCCCC",
"CCCCCCCCCCCCCCCCCCCCCCCCC...C......................................................................CC..CCCCCCCCCCCCCCCCCCCCCCCCC",
"CCCCCCCCCCCCCCCCCCCCCCCCC...CC....................................................................CC...CCCCCCCCCCCCCCCCCCCCCCCCC",
"CCCCCCCCCCCCCCCCCCCCCCCCCC...CC..................................................................CC...CCCCCCCCCCCCCCCCCCCCCCCCCC",
"CCCCCCCCCCCCCCCCCCCCCCCCCC...CC..................................................................CC...CCCCCCCCCCCCCCCCCCCCCCCCCC",
"CCCCCCCCCCCCCCCCCCCCCCCCCCC...CC................................................................CC...CCCCCCCCCCCCCCCCCCCCCCCCCCC",
"CCCCCCCCCCCCCCCCCCCCCCCCCCCC...CC..............................................................CC...CCCCCCCCCCCCCCCCCCCCCCCCCCCC",
"CCCCCCCCCCCCCCCCCCCCCCCCCCCC....CC............................................................CC....CCCCCCCCCCCCCCCCCCCCCCCCCCCC",
"CCCCCCCCCCCCCCCCCCCCCCCCCCCCC...CCC..........................................................CCC...CCCCCCCCCCCCCCCCCCCCCCCCCCCCC",
"CCCCCCCCCCCCCCCCCCCCCCCCCCCCCC...CCC........................................................CCC...CCCCCCCCCCCCCCCCCCCCCCCCCCCCCC",
"CCCCCCCCCCCCCCCCCCCCCCCCCCCCCCC...CCC......................................................CCC...CCCCCCCCCCCCCCCCCCCCCCCCCCCCCCC",
"CCCCCCCCCCCCCCCCCCCCCCCCCCCCCCCC...CCC....................................................CCC...CCCCCCCCCCCCCCCCCCCCCCCCCCCCCCCC",
"CCCCCCCCCCCCCCCCCCCCCCCCCCCCCCCCC...CCC..................................................CCC...CCCCCCCCCCCCCCCCCCCCCCCCCCCCCCCCC",
"CCCCCCCCCCCCCCCCCCCCCCCCCCCCCCCCCC....CC................................................CC....CCCCCCCCCCCCCCCCCCCCCCCCCCCCCCCCCC",
"CCCCCCCCCCCCCCCCCCCCCCCCCCCCCCCCCCC....CCC............................................CCC....CCCCCCCCCCCCCCCCCCCCCCCCCCCCCCCCCCC",
"CCCCCCCCCCCCCCCCCCCCCCCCCCCCCCCCCCCC....CCC..........................................CCC....CCCCCCCCCCCCCCCCCCCCCCCCCCCCCCCCCCCC",
"CCCCCCCCCCCCCCCCCCCCCCCCCCCCCCCCCCCCC.....CCC......................................CCC.....CCCCCCCCCCCCCCCCCCCCCCCCCCCCCCCCCCCCC",
"CCCCCCCCCCCCCCCCCCCCCCCCCCCCCCCCCCCCCCC.....CCC..................................CCCC....CCCCCCCCCCCCCCCCCCCCCCCCCCCCCCCCCCCCCCC",
"CCCCCCCCCCCCCCCCCCCCCCCCCCCCCCCCCCCCCCCC.....CCCC..............................CCCC.....CCCCCCCCCCCCCCCCCCCCCCCCCCCCCCCCCCCCCCCC",
"CCCCCCCCCCCCCCCCCCCCCCCCCCCCCCCCCCCCCCCCCC......CCCC........................CCCC......CCCCCCCCCCCCCCCCCCCCCCCCCCCCCCCCCCCCCCCCCC",
"CCCCCCCCCCCCCCCCCCCCCCCCCCCCCCCCCCCCCCCCCCCC......CCCCCCC..............CCCCCCC......CCCCCCCCCCCCCCCCCCCCCCCCCCCCCCCCCCCCCCCCCCCC",
"CCCCCCCCCCCCCCCCCCCCCCCCCCCCCCCCCCCCCCCCCCCCCC.......CCCCCCCCCCCCCCCCCCCCCC.......CCCCCCCCCCCCCCCCCCCCCCCCCCCCCCCCCCCCCCCCCCCCCC",
"CCCCCCCCCCCCCCCCCCCCCCCCCCCCCCCCCCCCCCCCCCCCCCCC...........CCCCCCCCCC...........CCCCCCCCCCCCCCCCCCCCCCCCCCCCCCCCCCCCCCCCCCCCCCCC",
"CCCCCCCCCCCCCCCCCCCCCCCCCCCCCCCCCCCCCCCCCCCCCCCCCCC..........................CCCCCCCCCCCCCCCCCCCCCCCCCCCCCCCCCCCCCCCCCCCCCCCCCCC",
"CCCCCCCCCCCCCCCCCCCCCCCCCCCCCCCCCCCCCCCCCCCCCCCCCCCCCCC..................CCCCCCCCCCCCCCCCCCCCCCCCCCCCCCCCCCCCCCCCCCCCCCCCCCCCCCC",
"CCCCCCCCCCCCCCCCCCCCCCCCCCCCCCCCCCCCCCCCCCCCCCCCCCCCCCCCCCCCCCCCCCCCCCCCCCCCCCCCCCCCCCCCCCCCCCCCCCCCCCCCCCCCCCCCCCCCCCCCCCCCCCCC",
"CCCCCCCCCCCCCCCCCCCCCCCCCCCCCCCCCCCCCCCCCCCCCCCCCCCCCCCCCCCCCCCCCCCCCCCCCCCCCCCCCCCCCCCCCCCCCCCCCCCCCCCCCCCCCCCCCCCCCCCCCCCCCCCC",
"CCCCCCCCCCCCCCCCCCCCCCCCCCCCCCCCCCCCCCCCCCCCCCCCCCCCCCCCCCCCCCCCCCCCCCCCCCCCCCCCCCCCCCCCCCCCCCCCCCCCCCCCCCCCCCCCCCCCCCCCCCCCCCCC",
"CCCCCCCCCCCCCCCCCCCCCCCCCCCCCCCCCCCCCCCCCCCCCCCCCCCCCCCCCCCCCCCCCCCCCCCCCCCCCCCCCCCCCCCCCCCCCCCCCCCCCCCCCCCCCCCCCCCCCCCCCCCCCCCC",
"CCCCCCCCCCCCCCCCCCCCCCCCCCCCCCCCCCCCCCCCCCCCCCCCCCCCCCCCCCCCCCCCCCCCCCCCCCCCCCCCCCCCCCCCCCCCCCCCCCCCCCCCCCCCCCCCCCCCCCCCCCCCCCCC",
"CCCCCCCCCCCCCCCCCCCCCCCCCCCCCCCCCCCCCCCCCCCCCCCCCCCCCCCCCCCCCCCCCCCCCCCCCCCCCCCCCCCCCCCCCCCCCCCCCCCCCCCCCCCCCCCCCCCCCCCCCCCCCCCC",
"CCCCCCCCCCCCCCCCCCCCCCCCCCCCCCCCCCCCCCCCCCCCCCCCCCCCCCCCCCCCCCCCCCCCCCCCCCCCCCCCCCCCCCCCCCCCCCCCCCCCCCCCCCCCCCCCCCCCCCCCCCCCCCCC",
"CCCCCCCCCCCCCCCCCCCCCCCCCCCCCCCCCCCCCCCCCCCCCCCCCCCCCCCCCCCCCCCCCCCCCCCCCCCCCCCCCCCCCCCCCCCCCCCCCCCCCCCCCCCCCCCCCCCCCCCCCCCCCCCC",
"CCCCCCCCCCCCCCCCCCCCCCCCCCCCCCCCCCCCCCCCCCCCCCCCCCCCCCCCCCCCCCCCCCCCCCCCCCCCCCCCCCCCCCCCCCCCCCCCCCCCCCCCCCCCCCCCCCCCCCCCCCCCCCCC",
"CCCCCCCCCCCCCCCCCCCCCCCCCCCCCCCCCCCCCCCCCCCCCCCCCCCCCCCCCCCCCCCCCCCCCCCCCCCCCCCCCCCCCCCCCCCCCCCCCCCCCCCCCCCCCCCCCCCCCCCCCCCCCCCC",
"CCCCCCCCCCCCCCCCCCCCCCCCCCCCCCCCCCCCCCCCCCCCCCCCCCCCCCCCCCCCCCCCCCCCCCCCCCCCCCCCCCCCCCCCCCCCCCCCCCCCCCCCCCCCCCCCCCCCCCCCCCCCCCCC",
"CCCCCCCCCCCCCCCCCCCCCCCCCCCCCCCCCCCCCCCCCCCCCCCCCCCCCCCCCCCCCCCCCCCCCCCCCCCCCCCCCCCCCCCCCCCCCCCCCCCCCCCCCCCCCCCCCCCCCCCCCCCCCCCC",
"CCCCCCCCCCCCCCCCCCCCCCCCCCCCCCCCCCCCCCCCCCCCCCCCCCCCCCCCCCCCCCCCCCCCCCCCCCCCCCCCCCCCCCCCCCCCCCCCCCCCCCCCCCCCCCCCCCCCCCCCCCCCCCCC",
"CCCCCCCCCCCCCCCCCCCCCCCCCCCCCCCCCCCCCCCCCCCCCCCCCCCCCCCCCCCCCCCCCCCCCCCCCCCCCCCCCCCCCCCCCCCCCCCCCCCCCCCCCCCCCCCCCCCCCCCCCCCCCCCC",
"CCCCCCCCCCCCCCCCCCCCCCCCCCCCCCCCCCCCCCCCCCCCCCCCCCCCCCCCCCCCCCCCCCCCCCCCCCCCCCCCCCCCCCCCCCCCCCCCCCCCCCCCCCCCCCCCCCCCCCCCCCCCCCCC",
"CCCCCCCCCCCCCCCCCCCCCCCCCCCCCCCCCCCCCCCCCCCCCCCCCCCCCCCCCCCCCCCCCCCCCCCCCCCCCCCCCCCCCCCCCCCCCCCCCCCCCCCCCCCCCCCCCCCCCCCCCCCCCCCC",
"CCCCCCCCCCCCCCCCCCCCCCCCCCCCCCCCCCCCCCCCCCCCCCCCCCCCCCCCCCCCCCCCCCCCCCCCCCCCCCCCCCCCCCCCCCCCCCCCCCCCCCCCCCCCCCCCCCCCCCCCCCCCCCCC",
"CCCCCCCCCCCCCCCCCCCCCCCCCCCCCCCCCCCCCCCCCCCCCCCCCCCCCCCCCCCCCCCCCCCCCCCCCCCCCCCCCCCCCCCCCCCCCCCCCCCCCCCCCCCCCCCCCCCCCCCCCCCCCCCC",
"CCCCCCCCCCCCCCCCCCCCCCCCCCCCCCCCCCCCCCCCCCCCCCCCCCCCCCCCCCCCCCCCCCCCCCCCCCCCCCCCCCCCCCCCCCCCCCCCCCCCCCCCCCCCCCCCCCCCCCCCCCCCCCCC",
"CCCCCCCCCCCCCCCCCCCCCCCCCCCCCCCCCCCCCCCCCCCCCCCCCCCCCCCCCCCCCCCCCCCCCCCCCCCCCCCCCCCCCCCCCCCCCCCCCCCCCCCCCCCCCCCCCCCCCCCCCCCCCCCC"
};
