/* XPM */
static char *_f44ae08ce1c4278ba49132f14331e03[] = {
/* columns rows colors chars-per-pixel */
"16 16 38 1 ",
"  c #070203",
". c #080203",
"X c #080304",
"o c #090405",
"O c #110C0D",
"+ c #110D0E",
"@ c #120D0E",
"# c #120E0F",
"$ c #130E0F",
"% c #130F10",
"& c #140F10",
"* c #141011",
"= c #171314",
"- c #181415",
"; c #191415",
": c #898787",
"> c #8A8888",
", c #8B898A",
"< c #949292",
"1 c #959393",
"2 c #969494",
"3 c #9A9898",
"4 c #9C9A9A",
"5 c #9D9B9C",
"6 c #9E9C9C",
"7 c #9F9D9E",
"8 c #A6A5A5",
"9 c #A7A5A6",
"0 c #A8A6A7",
"q c #A9A7A8",
"w c #ABA9A9",
"e c #ABAAAA",
"r c #ACABAB",
"t c #ADABAC",
"y c #FEFEFE",
"u c #FEFFFF",
"i c gray100",
"p c None",
/* pixels */
"pppppppppppppppp",
"pppppppppppppppp",
"pppppppppppppppp",
"pppppooooooppppp",
"ppppoXoXXXXopppp",
"pppoXO*O&*O oppp",
"ppp =4e88e6-.ppp",
"pppO3y2,,1y4Oppp",
"pppO4y1:>1y6Oppp",
"ppp =6t0qe7=Xppp",
"pppoXO*&&&%Xoppp",
"ppppooXXXXXXpppp",
"pppppooooooppppp",
"pppppppppppppppp",
"pppppppppppppppp",
"pppppppppppppppp"
};
