/* XPM */
static char *d012dc5dca2e47c4ce3d879980d9be8e[] = {
/* columns rows colors chars-per-pixel */
"64 64 156 2 ",
"   c #060102",
".  c #060202",
"X  c #060203",
"o  c #070203",
"O  c #080203",
"+  c #080304",
"@  c #090304",
"#  c #090305",
"$  c #090405",
"%  c #090506",
"&  c #0A0506",
"*  c #0A0607",
"=  c #0C0708",
"-  c #0D0809",
";  c #0D0909",
":  c #0D090A",
">  c #0E0A0A",
",  c #0E0A0B",
"<  c #0F0B0B",
"1  c #0F0B0C",
"2  c #0F0C0C",
"3  c #100C0C",
"4  c #100C0D",
"5  c #110D0E",
"6  c #171313",
"7  c #171314",
"8  c #181415",
"9  c #191415",
"0  c #191515",
"q  c #191516",
"w  c #1A1617",
"e  c #1C1819",
"r  c #1C1919",
"t  c #1E1A1B",
"y  c #1F1B1C",
"u  c #232021",
"i  c #252222",
"p  c #282526",
"a  c #2A2728",
"s  c #2B2829",
"d  c #2D292A",
"f  c #312E2F",
"g  c #322F2F",
"h  c #322F30",
"j  c #333030",
"k  c #383536",
"l  c #393637",
"z  c #464344",
"x  c #464444",
"c  c #474445",
"v  c #484546",
"b  c #4C494A",
"n  c #4D4A4A",
"m  c #4D4B4B",
"M  c #4E4B4B",
"N  c #4E4B4C",
"B  c #4E4C4C",
"V  c #4F4C4D",
"C  c #4F4D4D",
"Z  c #525051",
"A  c #535151",
"S  c #545152",
"D  c #545252",
"F  c #605E5F",
"G  c #615F60",
"H  c #666464",
"J  c #676565",
"K  c #686666",
"L  c #686767",
"P  c #696767",
"I  c #6D6B6B",
"U  c #6E6D6D",
"Y  c #706E6E",
"T  c #706E6F",
"R  c #767474",
"E  c #7C7B7B",
"W  c #7D7B7C",
"Q  c #7F7E7E",
"!  c #828080",
"~  c #828181",
"^  c #848383",
"/  c #868585",
"(  c #878686",
")  c #878687",
"_  c #888787",
"`  c #898888",
"'  c #898889",
"]  c #8A898A",
"[  c #8B8A8A",
"{  c #8D8C8D",
"}  c #8E8D8D",
"|  c #919090",
" . c #929191",
".. c #969595",
"X. c #979596",
"o. c #979696",
"O. c #9B9A9A",
"+. c #9F9E9E",
"@. c #A09F9F",
"#. c #A1A0A0",
"$. c #A2A1A1",
"%. c #A3A2A3",
"&. c #A4A3A3",
"*. c #A6A5A5",
"=. c #A9A8A8",
"-. c #A9A9A9",
";. c #ABAAAB",
":. c #B5B4B4",
">. c #B7B7B7",
",. c #B8B7B7",
"<. c #BBBABA",
"1. c #C8C7C7",
"2. c #CCCBCC",
"3. c #D0CFCF",
"4. c gray82",
"5. c #D3D2D2",
"6. c #D5D4D4",
"7. c #D8D7D8",
"8. c gray86",
"9. c gainsboro",
"0. c #DDDCDC",
"q. c #DDDDDD",
"w. c #DEDDDD",
"e. c gray88",
"r. c #E1E0E0",
"t. c #E1E1E1",
"y. c #E2E1E2",
"u. c #E2E2E2",
"i. c #E3E2E2",
"p. c gray89",
"a. c gray90",
"s. c #E6E5E5",
"d. c #E6E6E6",
"f. c #E7E7E7",
"g. c #E9E9E9",
"h. c gray92",
"j. c #ECECEC",
"k. c gray93",
"l. c #EEEEEE",
"z. c #EFEFEF",
"x. c #F0EFEF",
"c. c gray94",
"v. c gray95",
"b. c #F3F3F3",
"n. c #F6F6F6",
"m. c gray97",
"M. c #F8F7F8",
"N. c #F8F8F8",
"B. c #F9F9F9",
"V. c gray98",
"C. c #FBFBFB",
"Z. c gray99",
"A. c #FDFDFD",
"S. c #FEFEFE",
"D. c gray100",
"F. c None",
/* pixels */
"F.F.F.F.F.F.F.F.F.F.F.F.F.F.F.F.F.F.F.F.F.F.F.F.F.F.F.F.F.F.F.F.F.F.F.F.F.F.F.F.F.F.F.F.F.F.F.F.F.F.F.F.F.F.F.F.F.F.F.F.F.F.F.F.",
"F.F.F.F.F.F.F.F.F.F.F.F.F.F.F.F.F.F.F.F.F.F.F.F.F.F.F.F.F.F.F.F.F.F.F.F.F.F.F.F.F.F.F.F.F.F.F.F.F.F.F.F.F.F.F.F.F.F.F.F.F.F.F.F.",
"F.F.F.F.F.F.F.F.F.F.F.F.F.F.F.F.F.F.F.F.F.F.F.F.F.F.F.F.F.F.F.F.F.F.F.F.F.F.F.F.F.F.F.F.F.F.F.F.F.F.F.F.F.F.F.F.F.F.F.F.F.F.F.F.",
"F.F.F.F.F.F.F.F.F.F.F.F.F.F.F.F.F.F.F.F.F.F.F.F.F.F.F.F.F.F.F.F.F.F.F.F.F.F.F.F.F.F.F.F.F.F.F.F.F.F.F.F.F.F.F.F.F.F.F.F.F.F.F.F.",
"F.F.F.F.F.F.F.F.F.F.F.F.F.F.F.F.F.F.F.F.F.F.F.F.F.F.F.F.F.F.F.F.F.F.F.F.F.F.F.F.F.F.F.F.F.F.F.F.F.F.F.F.F.F.F.F.F.F.F.F.F.F.F.F.",
"F.F.F.F.F.F.F.F.F.F.F.F.F.F.F.F.F.F.F.F.F.F.F.F.F.F.F.F.F.F.F.F.F.F.F.F.F.F.F.F.F.F.F.F.F.F.F.F.F.F.F.F.F.F.F.F.F.F.F.F.F.F.F.F.",
"F.F.F.F.F.F.F.F.F.F.F.F.F.F.F.F.F.F.F.F.F.F.F.F.F.F.F.F.F.F.F.F.F.F.F.F.F.F.F.F.F.F.F.F.F.F.F.F.F.F.F.F.F.F.F.F.F.F.F.F.F.F.F.F.",
"F.F.F.F.F.F.F.F.F.F.F.F.F.F.F.F.F.F.F.F.F.F.F.F.F.F.F.F.F.F.F.F.F.F.F.F.F.F.F.F.F.F.F.F.F.F.F.F.F.F.F.F.F.F.F.F.F.F.F.F.F.F.F.F.",
"F.F.F.F.F.F.F.F.F.F.F.F.F.F.F.F.F.F.F.F.F.F.F.F.F.F.F.F.F.F.F.F.F.F.F.F.F.F.F.F.F.F.F.F.F.F.F.F.F.F.F.F.F.F.F.F.F.F.F.F.F.F.F.F.",
"F.F.F.F.F.F.F.F.F.F.F.F.F.F.F.F.F.F.F.F.F.F.F.F.F.F.F.F.F.F.F.F.F.F.F.F.F.F.F.F.F.F.F.F.F.F.F.F.F.F.F.F.F.F.F.F.F.F.F.F.F.F.F.F.",
"F.F.F.F.F.F.F.F.F.F.F.F.F.F.F.F.F.F.F.F.F.F.F.F.F.F.F.$ $ $ $ $ $ $ $ $ $ F.F.F.F.F.F.F.F.F.F.F.F.F.F.F.F.F.F.F.F.F.F.F.F.F.F.F.",
"F.F.F.F.F.F.F.F.F.F.F.F.F.F.F.F.F.F.F.F.F.F.F.F.$ $ $ $ F.F.F.F.F.F.F.F.$ $ $ $ F.F.F.F.F.F.F.F.F.F.F.F.F.F.F.F.F.F.F.F.F.F.F.F.",
"F.F.F.F.F.F.F.F.F.F.F.F.F.F.F.F.F.F.F.F.F.F.$ $ $ F.F.$ $ $ $ $ $ $ $ $ $ F.F.$ $ $ $ F.F.F.F.F.F.F.F.F.F.F.F.F.F.F.F.F.F.F.F.F.",
"F.F.F.F.F.F.F.F.F.F.F.F.F.F.F.F.F.F.F.F.$ $ F.F.$ $ $ $ $ $ $ $ $ $ $ $ $ $ $ $ F.F.$ $ F.F.F.F.F.F.F.F.F.F.F.F.F.F.F.F.F.F.F.F.",
"F.F.F.F.F.F.F.F.F.F.F.F.F.F.F.F.F.F.$ $ $ F.$ $ $ $ $ $ $ $ $ $ $ $ $ $ $ $ $ $ $ $ F.$ $ $ F.F.F.F.F.F.F.F.F.F.F.F.F.F.F.F.F.F.",
"F.F.F.F.F.F.F.F.F.F.F.F.F.F.F.F.F.$ $ F.F.$ $ $ $ $ $ $ $ $ $ $ $ $ $ $ $ $ $ $ $ $ $ F.F.$ $ F.F.F.F.F.F.F.F.F.F.F.F.F.F.F.F.F.",
"F.F.F.F.F.F.F.F.F.F.F.F.F.F.F.F.$ $ F.$ $ $ $ $ $ $ $ $ $ $ $ $ $ $ $ $ $ $ $ $ $ $ $ $ $ F.$ $ F.F.F.F.F.F.F.F.F.F.F.F.F.F.F.F.",
"F.F.F.F.F.F.F.F.F.F.F.F.F.F.F.$ $ F.$ $ $ $ $ $ $ $ $ $ $ $ $ $ $ $ $ $ $ $ $ $ $ $ $ $ $ $ F.$ $ F.F.F.F.F.F.F.F.F.F.F.F.F.F.F.",
"F.F.F.F.F.F.F.F.F.F.F.F.F.F.$ $ F.$ $ $ $ $ $ $ $ $ $ $ $ $ $ $ $ $ $ $ $ $ $ $ $ $ $ $ $ $ $ F.$ $ F.F.F.F.F.F.F.F.F.F.F.F.F.F.",
"F.F.F.F.F.F.F.F.F.F.F.F.F.F.$ F.$ $ $ $ $ $ $ $ $ $ $ $ $ $ $ $ $ $ $ $ $ $ $ $ $ $ $ $ $ $ $ $ F.$ F.F.F.F.F.F.F.F.F.F.F.F.F.F.",
"F.F.F.F.F.F.F.F.F.F.F.F.F.$ $ F.$ $ $ $ $ $ $ $ $ $ $ $ $ $ $ $ $ $ $ $ $ $ $ $ $ $ $ $ $ $ $ $ F.$ $ F.F.F.F.F.F.F.F.F.F.F.F.F.",
"F.F.F.F.F.F.F.F.F.F.F.F.$ $ F.$ $ $ $ $ $ $ $ $ $ + $ $ $ $ $ + $ $ $ $ $ $ $ $ $ $ $ $ $ $ $ $ $ F.$ $ F.F.F.F.F.F.F.F.F.F.F.F.",
"F.F.F.F.F.F.F.F.F.F.F.F.$ F.$ $ $ $ $ $ $ $ $ o o + $ $ $ $ $ + o $ $ $ $ $ + o + $ $ $ $ $ $ $ $ $ F.$ F.F.F.F.F.F.F.F.F.F.F.F.",
"F.F.F.F.F.F.F.F.F.F.F.F.$ F.$ $ $ $ $ $ $ $ o u h < + $ $ $ + a d $ + $ + o < g i $ $ $ $ $ $ $ $ $ F.$ $ F.F.F.F.F.F.F.F.F.F.F.",
"F.F.F.F.F.F.F.F.F.F.F.$ $ $ $ $ $ $ $ $ + o z 4.h.^ < + + + G e.y.H + O + < W h.6.b o + $ $ $ $ $ $ $ F.$ F.F.F.F.F.F.F.F.F.F.F.",
"F.F.F.F.F.F.F.F.F.F.F.$ F.$ $ $ $ $ $ $ o x 8.D.D.V.( 1 o G k.D.D.z.L $ < ! n.D.D.e.b o $ $ $ $ $ $ $ F.$ F.F.F.F.F.F.F.F.F.F.F.",
"F.F.F.F.F.F.F.F.F.F.F.$ F.$ $ $ $ $ $ o c 0.D.D.D.D.V.( L j.D.D.D.D.k.I ~ N.D.D.D.D.y.m o + + $ $ $ $ F.$ $ F.F.F.F.F.F.F.F.F.F.",
"F.F.F.F.F.F.F.F.F.F.$ $ $ $ $ $ $ + o z 0.D.D.D.D.D.D.C.n.D.D.D.D.D.D.m.V.D.D.D.D.D.D.y.m o $ $ $ $ $ $ $ $ F.F.F.F.F.F.F.F.F.F.",
"F.F.F.F.F.F.F.F.F.F.$ F.$ $ $ $ $ o c q.D.D.D.D.D.D.D.=.o.C.D.D.D.D.V. .*.D.D.D.D.D.D.D.y.m o $ $ $ $ $ F.$ F.F.F.F.F.F.F.F.F.F.",
"F.F.F.F.F.F.F.F.F.F.$ F.$ $ $ $ o c q.D.D.D.D.D.D.D.=.e 1 ] V.D.D.V.` < q &.D.D.D.D.D.D.D.y.B o $ $ $ $ F.$ F.F.F.F.F.F.F.F.F.F.",
"F.F.F.F.F.F.F.F.F.F.$ F.$ $ $ o z q.D.D.D.D.D.D.D.=.e o + 1 ( V.V.` 2 + o q &.D.D.D.D.D.D.D.y.m + $ $ $ F.$ F.F.F.F.F.F.F.F.F.F.",
"F.F.F.F.F.F.F.F.F.F.$ F.$ $ + q 1.D.D.D.D.D.D.D.<.e o $ $ + < ..O.< + $ $ o q >.D.D.D.D.D.D.D.3.y + $ $ F.$ F.F.F.F.F.F.F.F.F.F.",
"F.F.F.F.F.F.F.F.F.F.$ F.$ $ $ q 2.D.D.D.D.D.D.D.:.6 o $ $ o $  ...< o + $ o q >.D.D.D.D.D.D.D.4.y o $ $ F.$ F.F.F.F.F.F.F.F.F.F.",
"F.F.F.F.F.F.F.F.F.F.$ F.$ $ $ + N y.D.D.D.D.D.D.D.+.q o + < W n.n.~ < o o q &.D.D.D.D.D.D.D.a.S $ $ $ $ F.$ F.F.F.F.F.F.F.F.F.F.",
"F.F.F.F.F.F.F.F.F.F.$ F.$ $ $ $ o B p.D.D.D.D.D.D.D.#.7 = W n.D.D.V.~ < 6 +.D.D.D.D.D.D.D.a.S o $ $ $ $ F.$ F.F.F.F.F.F.F.F.F.F.",
"F.F.F.F.F.F.F.F.F.F.$ F.$ $ $ $ $ + C y.D.D.D.D.D.D.D.&.( n.D.D.D.D.n.] +.D.D.D.D.D.D.D.a.S o + $ $ $ $ F.$ F.F.F.F.F.F.F.F.F.F.",
"F.F.F.F.F.F.F.F.F.F.$ $ $ $ $ $ $ $ o B y.D.D.D.D.D.D.V.V.D.D.D.D.D.D.V.V.D.D.D.D.D.D.a.S o $ $ $ $ $ $ $ $ F.F.F.F.F.F.F.F.F.F.",
"F.F.F.F.F.F.F.F.F.F.F.$ F.$ $ $ $ $ $ + B y.D.D.D.D.V.{ T x.D.D.D.D.v.R ` V.D.D.D.D.a.S o $ $ $ $ $ $ F.$ $ F.F.F.F.F.F.F.F.F.F.",
"F.F.F.F.F.F.F.F.F.F.F.$ F.$ $ $ $ $ $ $ o m y.D.D.D.{ 5 + P c.D.D.v.T $ 1 _ V.D.D.a.S o $ $ $ $ $ $ $ F.$ F.F.F.F.F.F.F.F.F.F.F.",
"F.F.F.F.F.F.F.F.F.F.F.$ F.$ $ $ $ $ $ $ $ o m 7.k.] 5 + + + L a.f.U $ + + 3 ( k.8.S o $ $ $ $ $ $ $ $ F.$ F.F.F.F.F.F.F.F.F.F.F.",
"F.F.F.F.F.F.F.F.F.F.F.F.$ F.$ $ $ $ $ $ $ $ + p l < o $ $ + $ h j * o $ $ $ 1 k a o $ $ $ $ $ $ $ $ F.$ $ F.F.F.F.F.F.F.F.F.F.F.",
"F.F.F.F.F.F.F.F.F.F.F.F.$ F.$ $ $ $ $ $ $ $ $ o o + $ $ $ $ $ o o + $ $ $ $ + o o + $ $ $ $ $ $ $ $ F.$ F.F.F.F.F.F.F.F.F.F.F.F.",
"F.F.F.F.F.F.F.F.F.F.F.F.$ $ F.$ $ $ $ $ $ $ $ $ $ $ $ $ $ $ $ $ $ $ $ $ $ $ $ $ $ $ $ $ $ $ $ $ $ F.$ $ F.F.F.F.F.F.F.F.F.F.F.F.",
"F.F.F.F.F.F.F.F.F.F.F.F.F.$ $ F.$ $ $ $ $ $ $ $ $ $ $ $ $ $ $ $ $ $ $ $ $ $ $ $ $ $ $ $ $ $ $ $ $ F.$ F.F.F.F.F.F.F.F.F.F.F.F.F.",
"F.F.F.F.F.F.F.F.F.F.F.F.F.F.$ F.$ $ $ $ $ $ $ $ $ $ $ $ $ $ $ $ $ $ $ $ $ $ $ $ $ $ $ $ $ $ $ $ F.$ F.F.F.F.F.F.F.F.F.F.F.F.F.F.",
"F.F.F.F.F.F.F.F.F.F.F.F.F.F.$ $ F.$ $ $ $ $ $ $ $ $ $ $ $ $ $ $ $ $ $ $ $ $ $ $ $ $ $ $ $ $ $ F.$ $ F.F.F.F.F.F.F.F.F.F.F.F.F.F.",
"F.F.F.F.F.F.F.F.F.F.F.F.F.F.F.$ $ F.$ $ $ $ $ $ $ $ $ $ $ $ $ $ $ $ $ $ $ $ $ $ $ $ $ $ $ $ F.$ $ F.F.F.F.F.F.F.F.F.F.F.F.F.F.F.",
"F.F.F.F.F.F.F.F.F.F.F.F.F.F.F.F.$ $ F.$ $ $ $ $ $ $ $ $ $ $ $ $ $ $ $ $ $ $ $ $ $ $ $ $ $ F.$ $ F.F.F.F.F.F.F.F.F.F.F.F.F.F.F.F.",
"F.F.F.F.F.F.F.F.F.F.F.F.F.F.F.F.F.$ $ F.F.$ $ $ $ $ $ $ $ $ $ $ $ $ $ $ $ $ $ $ $ $ $ $ F.$ $ F.F.F.F.F.F.F.F.F.F.F.F.F.F.F.F.F.",
"F.F.F.F.F.F.F.F.F.F.F.F.F.F.F.F.F.F.$ $ $ F.$ $ $ $ $ $ $ $ $ $ $ $ $ $ $ $ $ $ $ $ F.$ $ $ F.F.F.F.F.F.F.F.F.F.F.F.F.F.F.F.F.F.",
"F.F.F.F.F.F.F.F.F.F.F.F.F.F.F.F.F.F.F.F.$ $ F.F.$ $ $ $ $ $ $ $ $ $ $ $ $ $ $ $ F.F.$ $ F.F.F.F.F.F.F.F.F.F.F.F.F.F.F.F.F.F.F.F.",
"F.F.F.F.F.F.F.F.F.F.F.F.F.F.F.F.F.F.F.F.F.$ $ $ $ F.F.$ $ $ $ $ $ $ $ $ $ F.F.F.$ $ $ F.F.F.F.F.F.F.F.F.F.F.F.F.F.F.F.F.F.F.F.F.",
"F.F.F.F.F.F.F.F.F.F.F.F.F.F.F.F.F.F.F.F.F.F.F.F.$ $ $ $ F.F.F.F.F.F.F.F.$ $ $ $ F.F.F.F.F.F.F.F.F.F.F.F.F.F.F.F.F.F.F.F.F.F.F.F.",
"F.F.F.F.F.F.F.F.F.F.F.F.F.F.F.F.F.F.F.F.F.F.F.F.F.F.F.$ $ $ $ $ $ $ $ $ $ F.F.F.F.F.F.F.F.F.F.F.F.F.F.F.F.F.F.F.F.F.F.F.F.F.F.F.",
"F.F.F.F.F.F.F.F.F.F.F.F.F.F.F.F.F.F.F.F.F.F.F.F.F.F.F.F.F.F.F.F.F.F.F.F.F.F.F.F.F.F.F.F.F.F.F.F.F.F.F.F.F.F.F.F.F.F.F.F.F.F.F.F.",
"F.F.F.F.F.F.F.F.F.F.F.F.F.F.F.F.F.F.F.F.F.F.F.F.F.F.F.F.F.F.F.F.F.F.F.F.F.F.F.F.F.F.F.F.F.F.F.F.F.F.F.F.F.F.F.F.F.F.F.F.F.F.F.F.",
"F.F.F.F.F.F.F.F.F.F.F.F.F.F.F.F.F.F.F.F.F.F.F.F.F.F.F.F.F.F.F.F.F.F.F.F.F.F.F.F.F.F.F.F.F.F.F.F.F.F.F.F.F.F.F.F.F.F.F.F.F.F.F.F.",
"F.F.F.F.F.F.F.F.F.F.F.F.F.F.F.F.F.F.F.F.F.F.F.F.F.F.F.F.F.F.F.F.F.F.F.F.F.F.F.F.F.F.F.F.F.F.F.F.F.F.F.F.F.F.F.F.F.F.F.F.F.F.F.F.",
"F.F.F.F.F.F.F.F.F.F.F.F.F.F.F.F.F.F.F.F.F.F.F.F.F.F.F.F.F.F.F.F.F.F.F.F.F.F.F.F.F.F.F.F.F.F.F.F.F.F.F.F.F.F.F.F.F.F.F.F.F.F.F.F.",
"F.F.F.F.F.F.F.F.F.F.F.F.F.F.F.F.F.F.F.F.F.F.F.F.F.F.F.F.F.F.F.F.F.F.F.F.F.F.F.F.F.F.F.F.F.F.F.F.F.F.F.F.F.F.F.F.F.F.F.F.F.F.F.F.",
"F.F.F.F.F.F.F.F.F.F.F.F.F.F.F.F.F.F.F.F.F.F.F.F.F.F.F.F.F.F.F.F.F.F.F.F.F.F.F.F.F.F.F.F.F.F.F.F.F.F.F.F.F.F.F.F.F.F.F.F.F.F.F.F.",
"F.F.F.F.F.F.F.F.F.F.F.F.F.F.F.F.F.F.F.F.F.F.F.F.F.F.F.F.F.F.F.F.F.F.F.F.F.F.F.F.F.F.F.F.F.F.F.F.F.F.F.F.F.F.F.F.F.F.F.F.F.F.F.F.",
"F.F.F.F.F.F.F.F.F.F.F.F.F.F.F.F.F.F.F.F.F.F.F.F.F.F.F.F.F.F.F.F.F.F.F.F.F.F.F.F.F.F.F.F.F.F.F.F.F.F.F.F.F.F.F.F.F.F.F.F.F.F.F.F.",
"F.F.F.F.F.F.F.F.F.F.F.F.F.F.F.F.F.F.F.F.F.F.F.F.F.F.F.F.F.F.F.F.F.F.F.F.F.F.F.F.F.F.F.F.F.F.F.F.F.F.F.F.F.F.F.F.F.F.F.F.F.F.F.F."
};
